<?xml version="1.0" encoding="UTF-8"?>
<svg width="100pt" height="100pt" version="1.1" viewBox="0 0 100 100" xmlns="http://www.w3.org/2000/svg">
 <g>
  <path d="m91.66 40.156-0.3125 3.2695c3.2969 1.6172 5.5273 4.6562 5.5273 8.1367 0 4.0195-2.9727 7.4492-7.1328 8.7773l-0.31641 3.3164c6.0703-1.3867 10.574-6.2734 10.574-12.094 0-5.082-3.4336-9.4531-8.3398-11.406z"/>
  <path d="m41.594 33.836c-0.59375 0.65234-0.88281 1.5195-0.80078 2.3984l2.9414 30.953h42.223l2.9375-30.953c0.082031-0.87891-0.20703-1.75-0.80078-2.3984-0.59375-0.65234-1.4297-1.0234-2.3125-1.0234h-41.875c-0.88281 0-1.7188 0.37109-2.3125 1.0234z"/>
  <path d="m94.059 89.566 5.8594-17.188c0.16016-0.47656 0.082031-1.0039-0.21094-1.4141s-0.76562-0.65234-1.2695-0.65234h-96.875c-0.50391 0-0.97656 0.24219-1.2695 0.65234s-0.37109 0.9375-0.21094 1.4141l5.8594 17.188c0.21875 0.63281 0.8125 1.0586 1.4805 1.0586h85.156c0.66797 0 1.2617-0.42578 1.4805-1.0586z"/>
  <path d="m63.789 24.109c-1.2773 0.94531-2.043 2.4297-2.0703 4.0156 0 0.86328 0.69922 1.5625 1.5625 1.5625s1.5625-0.69922 1.5625-1.5625c0-0.71484 0.30469-1.0234 1.0547-1.7148 1.3008-0.92578 2.0703-2.4219 2.0703-4.0156s-0.76953-3.0898-2.0703-4.0156c-0.75-0.69141-1.0547-0.99609-1.0547-1.7148 0-0.71484 0.30469-1.0234 1.0547-1.7109 1.2773-0.94531 2.043-2.4297 2.0703-4.0156 0-0.86328-0.69922-1.5625-1.5625-1.5625s-1.5625 0.69922-1.5625 1.5625c0 0.71484-0.30469 1.0234-1.0547 1.7109-1.2773 0.94531-2.043 2.4297-2.0703 4.0156 0.027344 1.5859 0.79297 3.0703 2.0703 4.0156 0.75 0.69141 1.0547 1 1.0547 1.7148 0 0.71484-0.30469 1.0234-1.0547 1.7148z"/>
  <path d="m74.727 24.109c-1.2773 0.94531-2.043 2.4297-2.0703 4.0156 0 0.86328 0.69922 1.5625 1.5625 1.5625s1.5625-0.69922 1.5625-1.5625c0-0.71484 0.30469-1.0234 1.0547-1.7148 1.3008-0.92578 2.0703-2.4219 2.0703-4.0156s-0.76953-3.0898-2.0703-4.0156c-0.75-0.69141-1.0547-0.99609-1.0547-1.7148 0-0.71484 0.30469-1.0234 1.0547-1.7109 1.2773-0.94531 2.043-2.4297 2.0703-4.0156 0-0.86328-0.69922-1.5625-1.5625-1.5625s-1.5625 0.69922-1.5625 1.5625c0 0.71484-0.30469 1.0234-1.0547 1.7109-1.2773 0.94531-2.043 2.4297-2.0703 4.0156 0.027344 1.5859 0.79297 3.0703 2.0703 4.0156 0.75 0.69141 1.0547 1 1.0547 1.7148 0 0.71484-0.30469 1.0234-1.0547 1.7148z"/>
  <path d="m52.852 24.109c-1.2773 0.94531-2.043 2.4297-2.0703 4.0156 0 0.86328 0.69922 1.5625 1.5625 1.5625s1.5625-0.69922 1.5625-1.5625c0-0.71484 0.30469-1.0234 1.0547-1.7148 1.3008-0.92578 2.0703-2.4219 2.0703-4.0156s-0.76953-3.0898-2.0703-4.0156c-0.75-0.69141-1.0547-0.99609-1.0547-1.7148 0-0.71484 0.30469-1.0234 1.0547-1.7109 1.2773-0.94531 2.043-2.4297 2.0703-4.0156 0-0.86328-0.69922-1.5625-1.5625-1.5625s-1.5625 0.69922-1.5625 1.5625c0 0.71484-0.30469 1.0234-1.0547 1.7109-1.2773 0.94531-2.043 2.4297-2.0703 4.0156 0.027344 1.5859 0.79297 3.0703 2.0703 4.0156 0.75 0.69141 1.0547 1 1.0547 1.7148 0 0.71484-0.30469 1.0234-1.0547 1.7148z"/>
  <path d="m7.1719 37.781v29.406h33.422l-2.9102-30.66c-0.16797-1.75 0.41406-3.4922 1.5977-4.7969 1.1836-1.3008 2.8633-2.043 4.625-2.043h2.9258c-0.10547-0.003906-0.20703-0.015625-0.30859-0.039062-4.7578-1.043-9.6211-1.5547-14.492-1.5234-4.8711-0.03125-9.7344 0.48047-14.492 1.5234-0.11719 0.023437-0.23437 0.039062-0.35156 0.039062-0.79688 0-1.4648-0.59766-1.5547-1.3867-0.089843-0.78906 0.42969-1.5195 1.2031-1.6992 4.9922-1.0938 10.086-1.6289 15.195-1.6016 5.1094-0.027344 10.203 0.50781 15.195 1.6016 0.19531 0.046876 0.375 0.12891 0.53906 0.24219 0.28516-1.6953 1.1094-3.2578 2.3516-4.4492-0.125-0.125-0.25391-0.26172-0.38281-0.41016l-0.003906 0.003906c-0.46484-0.51562-0.86328-1.082-1.1914-1.6953-0.003906-0.011719-0.011718-0.019531-0.015624-0.027344-5.4375-1.0273-10.961-1.5352-16.492-1.5156-15.531 0-32.031 3.8672-32.031 11.039 0 3 2.8359 6.125 7.1719 7.9922zm23.297 5.1875c0-0.86328 0.69922-1.5625 1.5625-1.5625s1.5625 0.69922 1.5625 1.5625v20.312c0 0.86328-0.69922 1.5625-1.5625 1.5625s-1.5625-0.69922-1.5625-1.5625zm-12.5 0c0-0.86328 0.69922-1.5625 1.5625-1.5625s1.5625 0.69922 1.5625 1.5625v20.312c0 0.86328-0.69922 1.5625-1.5625 1.5625s-1.5625-0.69922-1.5625-1.5625z"/>
  <path d="m46.852 29.688h1.0781c-0.039063-0.10547-0.070313-0.21484-0.10156-0.32422-0.28125 0.21484-0.625 0.32812-0.97656 0.32422z"/>
 </g>
</svg>
