<?xml version="1.0" encoding="UTF-8"?>
<svg width="100pt" height="100pt" version="1.1" viewBox="0 0 100 100" xmlns="http://www.w3.org/2000/svg">
 <g>
  <path d="m17.43 40.559c-9.6094 0-17.43 7.8125-17.43 17.43 0 8.4492 13.699 25.988 17.43 30.609 3.7305-4.6094 17.43-22.148 17.43-30.609 0-9.6172-7.8203-17.43-17.43-17.43zm0 23.672c-3.4492 0-6.25-2.8008-6.25-6.25s2.8008-6.25 6.25-6.25c3.4492 0 6.25 2.8008 6.25 6.25s-2.8008 6.25-6.25 6.25z"/>
  <path d="m100 16.27c0-6.7305-5.4805-12.211-12.211-12.211-6.7305 0-12.211 5.4805-12.211 12.211 0 5.2812 8.1016 16.41 12.211 21.5 4.1094-5.0898 12.211-16.219 12.211-21.5zm-16.371 0c0-2.2891 1.8594-4.1602 4.1602-4.1602 2.2891 0 4.1602 1.8711 4.1602 4.1602 0 2.2891-1.8711 4.1602-4.1602 4.1602-2.2891 0-4.1602-1.8594-4.1602-4.1602z"/>
  <path d="m23.328 93.078c-2.2383-0.12891-3.5781-0.23047-3.5898-0.23047-0.66016-0.050781-1.2383 0.44141-1.3008 1.1094-0.050781 0.66016 0.44141 1.2383 1.1094 1.3008 0.011719 0 1.3789 0.10938 3.6406 0.23047h0.070312c0.64063 0 1.1719-0.5 1.1992-1.1406 0.042969-0.66797-0.46875-1.2383-1.1289-1.2695z"/>
  <path d="m44.949 93.461c-1.1719 0.03125-2.3906 0.050781-3.6016 0.058593-0.67188 0.011719-1.1992 0.55078-1.1992 1.2188 0.011718 0.66016 0.53906 1.1992 1.2109 1.1992h0.011719c1.2305-0.011719 2.4492-0.03125 3.6406-0.058594 0.67188-0.019531 1.1914-0.57031 1.1797-1.2305-0.03125-0.67969-0.58203-1.1875-1.2422-1.1875z"/>
  <path d="m30.531 93.391c-1.1914-0.039063-2.4102-0.078125-3.6016-0.12891-0.67188-0.03125-1.2305 0.48828-1.2617 1.1484-0.03125 0.67188 0.48828 1.2305 1.1484 1.2617 1.2109 0.050781 2.4297 0.10156 3.6289 0.14062h0.039063c0.64844 0 1.1797-0.51953 1.1992-1.1719 0.035156-0.67969-0.48438-1.2305-1.1523-1.25z"/>
  <path d="m37.738 93.52c-1.1797-0.011719-2.3906-0.019531-3.6016-0.039062-0.67188-0.019531-1.2188 0.51953-1.2305 1.1797-0.011719 0.67188 0.51953 1.2188 1.1797 1.2305 1.2188 0.019531 2.4414 0.039063 3.6406 0.050781h0.011719c0.66016 0 1.1992-0.53906 1.2109-1.1992-0.007813-0.67188-0.55078-1.2109-1.2109-1.2227z"/>
  <path d="m52.5 58.25c0.21094 0 0.42969-0.058594 0.62109-0.17969 0.89844-0.55078 1.9414-1.1211 3.0898-1.6992 0.58984-0.30078 0.82812-1.0312 0.53125-1.6211-0.30078-0.58984-1.0312-0.82812-1.6211-0.53125-1.1992 0.60938-2.2891 1.2109-3.25 1.7891-0.57031 0.35156-0.75 1.0898-0.41016 1.6602 0.23047 0.37109 0.62891 0.58203 1.0391 0.58203z"/>
  <path d="m72.391 49.66c0.12891 0 0.26953-0.019531 0.39844-0.070312 1.0898-0.39062 2.2383-0.78125 3.3984-1.1797 0.62891-0.21094 0.96875-0.89844 0.75-1.5312-0.21875-0.62891-0.89844-0.96875-1.5312-0.75-1.1797 0.39844-2.3281 0.80078-3.4297 1.1914-0.62891 0.21875-0.96094 0.91016-0.73828 1.5391 0.19141 0.49219 0.65234 0.80078 1.1523 0.80078z"/>
  <path d="m73.859 75.539c-0.28906 0.60156-0.050781 1.3203 0.55078 1.6094 1.1602 0.57031 2.1602 1.1484 2.9688 1.7109 0.21094 0.14844 0.44922 0.21875 0.69922 0.21875 0.37891 0 0.75-0.17969 0.98828-0.51172 0.37891-0.53906 0.26172-1.3008-0.28906-1.6797-0.92188-0.64844-2-1.2812-3.3008-1.9102-0.59766-0.28516-1.3281-0.035156-1.6172 0.5625z"/>
  <path d="m65.602 52.16c0.14844 0 0.28906-0.03125 0.44141-0.078125 1.0703-0.42188 2.1992-0.83984 3.3594-1.2695 0.62109-0.23047 0.94141-0.92188 0.71094-1.5508-0.23047-0.62109-0.92188-0.94141-1.5508-0.71094-1.1719 0.42969-2.3203 0.87109-3.3984 1.2891-0.62109 0.23828-0.92969 0.94141-0.69141 1.5586 0.1875 0.47266 0.64844 0.76172 1.1289 0.76172z"/>
  <path d="m58.93 54.941c0.17187 0 0.32812-0.03125 0.5-0.10938 1.0195-0.46094 2.1289-0.94141 3.2891-1.4219 0.62109-0.26172 0.91016-0.96094 0.64844-1.5781-0.26172-0.62109-0.96094-0.91016-1.5781-0.64844-1.1797 0.48828-2.3086 0.98047-3.3516 1.4492-0.60938 0.26953-0.87891 0.98828-0.60156 1.6016 0.19531 0.44531 0.63281 0.70703 1.0938 0.70703z"/>
  <path d="m51.172 68.449c0.42969 0 0.85156-0.23828 1.0703-0.64844 0.30859-0.58984 0.078124-1.3203-0.51172-1.6289-1.1914-0.62109-2.0781-1.2305-2.6406-1.8203-0.46094-0.48047-1.2188-0.5-1.7109-0.039062-0.48047 0.46094-0.5 1.2188-0.039062 1.7109 0.76172 0.78906 1.8281 1.5391 3.2695 2.2891 0.17969 0.085938 0.37891 0.13672 0.5625 0.13672z"/>
  <path d="m79.98 79.379c-0.55859 0.35156-0.73047 1.1016-0.37891 1.6602 0.37891 0.60156 0.57031 1.1992 0.57031 1.8281v0.14062c-0.011719 0.21094-0.03125 0.41016-0.070313 0.60938-0.10937 0.66016 0.32031 1.2812 0.98047 1.3984 0.070313 0.011719 0.14062 0.019531 0.21094 0.019531 0.57031 0 1.0781-0.41016 1.1914-1 0.050781-0.30078 0.089844-0.60938 0.10156-0.92188 0-0.078125 0.011718-0.16016 0.011718-0.23828 0-1.0781-0.32031-2.1289-0.94141-3.1211-0.36719-0.55469-1.1055-0.72266-1.6758-0.375z"/>
  <path d="m71.621 75.828c0.48047 0 0.92969-0.28906 1.1211-0.76172 0.23828-0.62109-0.058594-1.3203-0.67969-1.5586-1.0312-0.41016-2.1602-0.82031-3.4492-1.2695-0.62891-0.21875-1.3203 0.10938-1.5391 0.73828-0.21875 0.62891 0.10938 1.3203 0.73828 1.5391 1.2617 0.44141 2.3594 0.83984 3.3516 1.2383 0.16406 0.046875 0.31641 0.074219 0.45703 0.074219z"/>
  <path d="m73.129 89.602c-1 0.37891-2.1289 0.73047-3.3398 1.0586-0.64062 0.17188-1.0195 0.82812-0.85156 1.4805 0.14062 0.53906 0.62891 0.89062 1.1602 0.89062 0.10156 0 0.21094-0.011719 0.30859-0.039062 1.2891-0.35156 2.4805-0.73047 3.5586-1.1289 0.62109-0.23047 0.94141-0.92969 0.69922-1.5508-0.21484-0.63281-0.90234-0.95312-1.5352-0.71094z"/>
  <path d="m78.781 86.191c-0.62891 0.69922-1.4883 1.3594-2.5508 1.9688-0.57812 0.32812-0.78125 1.0703-0.44141 1.6484 0.21875 0.39062 0.62891 0.60156 1.0508 0.60156 0.19922 0 0.41016-0.050781 0.60156-0.16016 1.2812-0.73828 2.3281-1.5586 3.1289-2.4414 0.44922-0.48828 0.41016-1.2617-0.089843-1.6992-0.49219-0.44922-1.25-0.41016-1.6992 0.082031z"/>
  <path d="m89.219 41.672c-1.1797 0.35938-2.3398 0.71875-3.4609 1.0703-0.64062 0.19922-0.98828 0.87891-0.78906 1.5117 0.16016 0.51953 0.64062 0.85156 1.1484 0.85156 0.12109 0 0.23828-0.019531 0.35937-0.058594 1.1211-0.35156 2.2695-0.71094 3.4492-1.0703 0.64062-0.19922 0.98828-0.87109 0.80078-1.5117-0.19531-0.63672-0.86719-0.98438-1.5078-0.79297z"/>
  <path d="m82.301 43.84c-1.1797 0.37891-2.3281 0.76172-3.4492 1.1211-0.62891 0.21094-0.98047 0.89062-0.76953 1.5195 0.17188 0.51172 0.64062 0.82812 1.1484 0.82812 0.12891 0 0.25-0.019532 0.37891-0.058594 1.1094-0.37109 2.25-0.73828 3.4297-1.1211 0.62891-0.19922 0.98047-0.87891 0.78125-1.5195-0.19922-0.62109-0.87891-0.96875-1.5195-0.76953z"/>
  <path d="m52.141 93.16c-1.1602 0.070313-2.3711 0.12891-3.5898 0.17969-0.67188 0.03125-1.1797 0.58984-1.1602 1.25 0.03125 0.64844 0.55859 1.1602 1.1992 1.1602h0.050781c1.2383-0.050781 2.4688-0.10938 3.6406-0.19141 0.66016-0.039063 1.1719-0.60938 1.1289-1.2812-0.039062-0.66797-0.60938-1.1562-1.2695-1.1172z"/>
  <path d="m57.891 71.172c0.5 0 0.96875-0.32031 1.1406-0.82031 0.21875-0.62891-0.12109-1.3203-0.75-1.5312-1.3008-0.44141-2.3906-0.83984-3.3594-1.2188-0.62109-0.23828-1.3203 0.058594-1.5586 0.67969s0.058594 1.3203 0.67969 1.5586c1 0.39062 2.1289 0.80078 3.4609 1.2617 0.125 0.046876 0.25781 0.070313 0.38672 0.070313z"/>
  <path d="m66.352 91.461c-1.1016 0.21875-2.2812 0.42969-3.5117 0.60937-0.66016 0.10156-1.1094 0.71094-1.0117 1.3711 0.089844 0.60156 0.60156 1.0312 1.1914 1.0312 0.058594 0 0.12109 0 0.17969-0.011718 1.2617-0.19141 2.4805-0.39844 3.6211-0.62891 0.64844-0.12891 1.0781-0.76953 0.94922-1.4219-0.14062-0.66016-0.76953-1.082-1.418-0.94922z"/>
  <path d="m48.48 62.32c0.23828-0.67969 0.85938-1.4492 1.8516-2.2812 0.51172-0.42969 0.57031-1.1914 0.14062-1.6992-0.42969-0.51172-1.1914-0.57031-1.6992-0.14062-1.3398 1.1289-2.1719 2.2188-2.5586 3.3203-0.21875 0.62891 0.10938 1.3203 0.73828 1.5391 0.12891 0.050781 0.26953 0.070312 0.39844 0.070312 0.47656-0.007812 0.94922-0.32031 1.1289-0.80859z"/>
  <path d="m59.289 92.539c-1.1406 0.12891-2.3398 0.25-3.5703 0.35938-0.66016 0.058593-1.1602 0.64062-1.1016 1.3008 0.050781 0.62891 0.57812 1.1016 1.1992 1.1016h0.10156c1.25-0.10938 2.4805-0.23047 3.6406-0.35938 0.66016-0.078125 1.1406-0.67188 1.0586-1.3398-0.066407-0.66016-0.66797-1.1328-1.3281-1.0625z"/>
  <path d="m64.41 73.359c0.12109 0.039063 0.25 0.058594 0.37109 0.058594 0.51172 0 0.98047-0.32031 1.1484-0.82812 0.21094-0.62891-0.14063-1.3086-0.76953-1.5195-0.73047-0.23828-1.4609-0.46875-2.1797-0.71094l-1.2695-0.41016c-0.62891-0.19922-1.3086 0.14062-1.5195 0.78125-0.21094 0.62891 0.14062 1.3086 0.78125 1.5195l1.2812 0.41016c0.70703 0.23047 1.4258 0.46094 2.1562 0.69922z"/>
 </g>
</svg>
